# xmcd CD database file
#
# Track frame offsets:
#	150
#	11696
#	23612
#	39527
#	55113
#	68171
#	86990
#	100005
#	111689
#	129499
#
# Disc length: 1904 seconds
#
# Revision: 0
# Processed by: cddbd v1.4PL0 Copyright (c) Steve Scherf et al.
# Submitted via: Feurio! 1.63 - http://www.feurio.com
#
DISCID=82076e0a
DTITLE=Take It Easy - No 1
DYEAR=1900
DGENRE=
TTITLE0=Früh schon am Morgen
TTITLE1=Zocker
TTITLE2=Mach's gut
TTITLE3=Die Reise 
TTITLE4=Cadillac
TTITLE5=Old Hippie
TTITLE6=Damals
TTITLE7=Freitag Nacht
TTITLE8=Bobby
TTITLE9=Verzeih
EXTD=
EXTT0=
EXTT1=
EXTT2=
EXTT3=
EXTT4=
EXTT5=
EXTT6=
EXTT7=
EXTT8=
EXTT9=
PLAYORDER=
